# xmcd
#
# Track frame offsets: 
#        183
#        11635
#        24030
#        33955
#        51303
#        64648
#        77175
#        93138
#        106858
#        123190
#        140085
#        151060
#        164470
#        174510
#        185208
#        196020
#        208703
#        220068
#        230610
#        241208
#        254310
#        265970
#        277420
#        290293
#        303708
#        313558
#
# Disc length: 4418 seconds
#
# Revision: 1
# Processed by: cddbd v1.4PL0 Copyright (c) Steve Scherf et al.
# Submitted via: ExactAudioCopy v0.90b4
#
DISCID=6e11401a
DTITLE=John Lee Hooker - The Boss
DYEAR=1996
DGENRE=Blues
TTITLE0=Boom Boom
TTITLE1=I'm In The Mood
TTITLE2=Dimples
TTITLE3=Blues Before Sunrise
TTITLE4=I'm Going Upstairs
TTITLE5=Crawlin' Kingsnake
TTITLE6=Thelma
TTITLE7=Time Is Marching
TTITLE8=Process
TTITLE9=When My First Wife Left Me
TTITLE10=Send Me Your Pillow
TTITLE11=Baby Lee
TTITLE12=I'm Leaving
TTITLE13=Old Time Shimmy
TTITLE14=Let's Make It
TTITLE15=Hobo Blues
TTITLE16=What Do You Say
TTITLE17=She's Mine (Keep Your Hands To Yourself)
TTITLE18=Dusty Road
TTITLE19=I'm So Excited
TTITLE20=Little Wheel
TTITLE21=Hard Headed Woman
TTITLE22=She Shot Me Down
TTITLE23=Whiskey and Wimmen
TTITLE24=Onions
TTITLE25=Wednesday Evening Blues
EXTD=
EXTT0=
EXTT1=
EXTT2=
EXTT3=
EXTT4=
EXTT5=
EXTT6=
EXTT7=
EXTT8=
EXTT9=
EXTT10=
EXTT11=
EXTT12=
EXTT13=
EXTT14=
EXTT15=
EXTT16=
EXTT17=
EXTT18=
EXTT19=
EXTT20=
EXTT21=
EXTT22=
EXTT23=
EXTT24=
EXTT25=
PLAYORDER=
